<svg xmlns="http://www.w3.org/2000/svg" width="22" height="25" viewBox="0 0 22 25"><path d="M11 11.994c-3.3 0-5.98-2.668-5.98-5.955C5.02 2.753 7.7.084 11 .084c3.3 0 5.98 2.669 5.98 5.955 0 3.287-2.68 5.955-5.98 5.955zM11 1.49c-2.51 0-4.57 2.05-4.57 4.55s2.06 4.55 4.57 4.55c2.51 0 4.57-2.05 4.57-4.55S13.51 1.49 11 1.49zm10.154 23.313H.846a.697.697 0 0 1-.705-.702c0-5.955 4.88-10.814 10.859-10.814 5.951 0 10.803 4.803 10.859 10.73v.084c0 .365-.31.702-.705.702zM1.579 23.4h18.842c-.367-4.86-4.457-8.708-9.421-8.708-4.964 0-9.054 3.848-9.42 8.708z"/></svg>