<svg xmlns="http://www.w3.org/2000/svg" width="25" height="22" viewBox="0 0 25 22"><path fill-rule="evenodd" d="M19.794 16.005c1.719 0 3.117 1.345 3.117 2.998 0 1.652-1.398 2.997-3.117 2.997s-3.117-1.345-3.117-2.997c0-1.653 1.398-2.998 3.117-2.998zm0 4.197c.687 0 1.247-.538 1.247-1.2 0-.66-.56-1.198-1.247-1.198-.688 0-1.247.538-1.247 1.199 0 .66.56 1.199 1.247 1.199zm5.007-15.78c.177.217.24.5.172.77l-2.276 8.841a.928.928 0 0 1-.908.683H7.232a.928.928 0 0 1-.91-.69L3.284 1.798H.935C.419 1.798 0 1.396 0 .9S.419 0 .935 0H4.02a.93.93 0 0 1 .91.69l.842 3.386h18.292c.287 0 .559.127.736.345zm-3.744 8.496l1.813-7.043H6.22l1.75 7.043h13.087zM8.48 16.005c1.718 0 3.117 1.345 3.117 2.998 0 1.652-1.399 2.997-3.117 2.997-1.72 0-3.117-1.345-3.117-2.997 0-1.653 1.398-2.998 3.117-2.998zm0 4.197c.687 0 1.246-.538 1.246-1.2 0-.66-.559-1.198-1.246-1.198-.688 0-1.247.538-1.247 1.199 0 .66.559 1.199 1.247 1.199z"/></svg>